<svg width="16" height="16" viewBox="0 0 16 16" fill="none" xmlns="http://www.w3.org/2000/svg">
<g id="Chevron Right cr-fr">
<path id="Shape" fill-rule="evenodd" clip-rule="evenodd" d="M1.33337 8C1.33337 4.3181 4.31814 1.33333 8.00004 1.33333C11.6819 1.33333 14.6667 4.3181 14.6667 8C14.6667 11.6819 11.6819 14.6667 8.00004 14.6667C4.31814 14.6667 1.33337 11.6819 1.33337 8ZM7.80478 5.52859C7.54443 5.26824 7.12232 5.26824 6.86197 5.52859C6.60162 5.78894 6.60162 6.21105 6.86197 6.4714L8.39057 8L6.86197 9.52859C6.60162 9.78894 6.60162 10.2111 6.86197 10.4714C7.12232 10.7317 7.54443 10.7317 7.80478 10.4714L9.80478 8.4714C10.0651 8.21105 10.0651 7.78894 9.80478 7.52859L7.80478 5.52859Z" fill="#404E71"/>
</g>
</svg>
