<svg width="19" height="19" viewBox="0 0 19 19" fill="none" xmlns="http://www.w3.org/2000/svg">
<g id="Vendor" clip-path="url(#clip0_4_1176)">
<path id="Vector" d="M18.4073 14.0235L15.4359 17.128C15.3713 17.1954 15.2931 17.2492 15.2063 17.2859C15.1194 17.3227 15.0257 17.3416 14.9311 17.3416H0.844964C0.77775 17.3416 0.712002 17.3224 0.655798 17.2865C0.599593 17.2506 0.555379 17.1995 0.528589 17.1395C0.501799 17.0794 0.493599 17.0131 0.504997 16.9485C0.516395 16.884 0.546895 16.8241 0.592748 16.7762L3.56643 13.6717C3.63086 13.6045 3.70876 13.5508 3.79532 13.5141C3.88189 13.4773 3.97528 13.4583 4.06972 13.4581H18.155C18.2222 13.4581 18.288 13.4773 18.3442 13.5132C18.4004 13.5491 18.4446 13.6002 18.4715 13.6602C18.4982 13.7203 18.5064 13.7867 18.495 13.8512C18.4836 13.9157 18.4531 13.9756 18.4073 14.0235ZM15.4359 7.77186C15.3713 7.70442 15.2931 7.65066 15.2063 7.61391C15.1194 7.57718 15.0257 7.55823 14.9311 7.55829H0.844964C0.77775 7.55829 0.712002 7.57741 0.655798 7.61332C0.599593 7.64923 0.555379 7.70034 0.528589 7.76038C0.501799 7.82044 0.493599 7.88681 0.504997 7.95134C0.516395 8.01586 0.546895 8.07574 0.592748 8.12363L3.56643 11.2281C3.63086 11.2954 3.70876 11.349 3.79532 11.3858C3.88189 11.4225 3.97528 11.4416 4.06972 11.4417H18.155C18.2222 11.4417 18.288 11.4226 18.3442 11.3867C18.4004 11.3508 18.4446 11.2997 18.4715 11.2396C18.4982 11.1796 18.5064 11.1132 18.495 11.0487C18.4836 10.9841 18.4531 10.9243 18.4073 10.8764L15.4359 7.77186ZM0.844964 5.54188H14.9311C15.0257 5.54191 15.1194 5.52299 15.2063 5.48624C15.2931 5.44949 15.3713 5.39572 15.4359 5.32828L18.4073 2.22376C18.4531 2.17589 18.4836 2.11601 18.495 2.05148C18.5064 1.98695 18.4982 1.92059 18.4715 1.86054C18.4446 1.80049 18.4004 1.74937 18.3442 1.71346C18.288 1.67756 18.2222 1.65843 18.155 1.65842H4.06972C3.97528 1.65858 3.88189 1.67762 3.79532 1.71436C3.70876 1.7511 3.63086 1.80476 3.56643 1.87201L0.593515 4.97653C0.547705 5.02435 0.517219 5.08418 0.505795 5.14862C0.494371 5.21308 0.502506 5.2794 0.529202 5.33942C0.555898 5.39945 0.599995 5.45056 0.656084 5.48652C0.712174 5.52249 0.777816 5.54172 0.844964 5.54188Z" fill="url(#paint0_linear_4_1176)"/>
</g>
<defs>
<linearGradient id="paint0_linear_4_1176" x1="2.01941" y1="17.7154" x2="16.3602" y2="1.12088" gradientUnits="userSpaceOnUse">
<stop offset="0.08" stop-color="#9945FF"/>
<stop offset="0.3" stop-color="#8752F3"/>
<stop offset="0.5" stop-color="#5497D5"/>
<stop offset="0.6" stop-color="#43B4CA"/>
<stop offset="0.72" stop-color="#28E0B9"/>
<stop offset="0.97" stop-color="#19FB9B"/>
</linearGradient>
<clipPath id="clip0_4_1176">
<rect width="18" height="18" fill="white" transform="translate(0.5 0.5)"/>
</clipPath>
</defs>
</svg>
